<?xml version="1.0" encoding="utf-8"?>
<!-- Generator: Adobe Illustrator 24.2.3, SVG Export Plug-In . SVG Version: 6.00 Build 0)  -->
<svg version="1.1" id="Layer_1" xmlns="http://www.w3.org/2000/svg" xmlns:xlink="http://www.w3.org/1999/xlink" x="0px" y="0px"
	 viewBox="0 0 360 360" style="enable-background:new 0 0 360 360;" xml:space="preserve">
<style type="text/css">
	.st0{fill:#F47B29;}
	.st1{fill:#FFFFFF;}
</style>
<g>
	<path class="st0" d="M331.8,360H28.2C12.6,360,0,347.4,0,331.8V28.2C0,12.6,12.6,0,28.2,0h303.6C347.4,0,360,12.6,360,28.2v303.6
		C360,347.4,347.4,360,331.8,360z"/>
	<path class="st1" d="M261,144.6 M276.7,176.9 M177.6,67.8l-82.9,77c-11.6,32.5,0.2,0-11.4,32.5c1.1,0.9,8.2,6.3,11.5,8.9
		c-0.4,3.2-0.4,6.4-0.4,9.7c0,4.3,0.4,8.4,1,12.5c-1.6,1.4-5.1,4.7-11.3,10.2c3.7,15.9,10,25.6,14.2,31.6c1.5-0.2,10.3-1.1,14.4-1.6
		c4.5,5.8,9.8,10.9,15.6,15.3c-0.1,2-0.4,6.9-0.9,15.4c13.8,8.8,25.1,11.3,32.2,12.6c0.9-1.2,6.8-8.3,9.4-11.4
		c3.5,0.4,7.1,0.7,10.8,0.7c3.6,0,7.2-0.3,10.7-0.7c1.2,1.3,4.5,5.1,10.3,11.9c16-3.4,25.8-9.5,31.8-13.6c-0.1-1.5-1-11-1.3-14.9
		c5.7-4.3,10.8-9.3,15.2-14.9c1.6,0.1,6.6,0.5,15.8,1.3c9-13.6,11.8-24.8,13.2-32c-1.2-1-8.4-7.2-11.4-9.7c0.6-4.1,0.9-8.3,0.9-12.6
		c0-2.9-0.1-5.9-0.4-8.7c1.3-1.1,5.1-4.3,12.1-10.1L261,144.6L241.2,128V87h-34.3v10.2L177.6,67.8 M179.8,244.7c-27,0-49-21.9-49-49
		c0-27,21.9-49,49-49c27,0,49,21.9,49,49C228.7,222.8,206.8,244.7,179.8,244.7z"/>
</g>
</svg>
