<?xml version="1.0" encoding="utf-8"?>
<!-- Generator: Adobe Illustrator 24.3.0, SVG Export Plug-In . SVG Version: 6.00 Build 0)  -->
<svg version="1.1" id="Layer_1" xmlns="http://www.w3.org/2000/svg" xmlns:xlink="http://www.w3.org/1999/xlink" x="0px" y="0px"
	 viewBox="0 0 1088 688" style="enable-background:new 0 0 1088 688;" xml:space="preserve">
<style type="text/css">
	.st0{fill:#203446;}
	.st1{fill:#E8E9EB;}
	.st2{opacity:0.1;enable-background:new    ;}
	.st3{fill:#093371;}
	.st4{opacity:0.2;enable-background:new    ;}
	.st5{fill:#F7A065;}
	.st6{fill:#F47B29;}
	.st7{fill:#FEF0E7;}
	.st8{fill:#F8B07F;}
</style>
<g id="Group_12" transform="translate(-57 -56)">
	<g id="Group_11" transform="translate(57 56)">
		<path id="Path_83" class="st0" d="M961.8,454.4c-5.3,45.2-16.2,81.4-31.2,110.3c-20,38.5-54.2,54-84.8,70.3
			c-8.8,4.7-18,8.7-27.5,11.9c-55.6,19.3-117.8,14.2-166.7,4c-34.3-7.2-69.1-11.6-104.1-13.2c-10-0.4-20-0.7-30-0.7
			c-15.4,0-293.1,5.3-360.7-131.6c-16.7-33.8-28.1-75-32.2-125.3C113,238.2,176.9,144.8,259.4,83.8c156-115.4,369.8-110.6,523.4,7.9
			C885.2,170.6,981,290,961.8,454.4z"/>
		<path id="Path_84" class="st1" d="M930.6,564.8c-20,38.5-47.2,64-77.8,80.3c-8.8,4.7-18,8.7-27.5,11.9
			c-55.6,19.3-117.8,14.2-166.7,4c-34.3-7.2-69.1-11.6-104.1-13.2c-10-0.4-20-0.7-30-0.7c-15.4,0-30.8,0.6-46.2,1.7
			c-100.2,7.4-253.8-6.4-321.4-143.3L326,178l63,161.6l20.1,51.6l55.4-76L493,276l130.2,149.3L660,344l254.8,207.9l14.2,11.6
			L930.6,564.8z"/>
		<path id="Path_85" class="st2" d="M302,283l26-57l36,83l-31-60L302,283z"/>
		<path id="Path_86" class="st2" d="M554.5,647.8c-10-0.4-20-0.7-30-0.7L409,391.2L554.5,647.8z"/>
		<path id="Path_87" class="st2" d="M464.4,315.2L493,293l130,150L491,315L464.4,315.2z"/>
		<path id="Path_88" class="st2" d="M852.8,645c-8.8,4.7-18,8.7-27.5,11.9L623.2,425.2L852.8,645z"/>
		<circle id="Ellipse_11" class="st1" cx="482" cy="102" r="3"/>
		<circle id="Ellipse_12" class="st1" cx="399" cy="205" r="3"/>
		<circle id="Ellipse_13" class="st1" cx="602" cy="223" r="2"/>
		<circle id="Ellipse_14" class="st1" cx="182" cy="268" r="2"/>
		<circle id="Ellipse_15" class="st1" cx="614" cy="99" r="2"/>
		<circle id="Ellipse_16" class="st1" cx="738" cy="195" r="2"/>
		<circle id="Ellipse_17" class="st1" cx="860" cy="347" r="2"/>
		<path id="Path_89" class="st1" d="M306,121.2h-2.8v-2.8h-1.5v2.8H299v1.5h2.8v2.8h1.5v-2.8h2.8L306,121.2L306,121.2z"/>
		<path id="Path_90" class="st1" d="M848,424.2h-2.8v-2.8h-1.5v2.8H841v1.5h2.8v2.8h1.5v-2.8h2.8L848,424.2L848,424.2z"/>
		<path id="Path_91" class="st0" d="M1088,614c0,16.6-243.6,74-544,74S0,630.5,0,614s243.6,14,544,14S1088,597.4,1088,614z"/>
		<path id="Path_92" class="st2" d="M1088,614c0,16.6-243.6,74-544,74S0,630.5,0,614s243.6,14,544,14S1088,597.4,1088,614z"/>
		<ellipse id="Ellipse_18" class="st0" cx="544" cy="614" rx="544" ry="30"/>
		<path id="Path_95" class="st0" d="M137,490.5c0,55.3,34.7,100.1,77.6,100.1"/>
		<path id="Path_96" class="st3" d="M214.6,590.7c0-56,38.7-101.3,86.6-101.3"/>
		<path id="Path_97" class="st3" d="M165.1,495.5c0,52.6,22.1,95.1,49.5,95.1"/>
		<path id="Path_98" class="st0" d="M214.6,590.7c0-71.5,44.8-129.4,100.1-129.4"/>
		<path id="Path_99" class="st1" d="M198.3,591.4c0,0,11-0.3,14.3-2.7s16.9-5.2,17.8-1.4s16.5,18.8,4.1,18.9s-28.9-1.9-32.2-4
			S198.3,591.4,198.3,591.4z"/>
		<path id="Path_100" class="st4" d="M234.7,604.9c-12.4,0.1-28.9-1.9-32.2-4c-2.5-1.5-3.5-7-3.9-9.6h-0.4c0,0,0.7,8.9,4,10.9
			s19.8,4.1,32.2,4c3.6,0,4.8-1.3,4.8-3.2C238.8,604.2,237.4,604.9,234.7,604.9z"/>
		<path id="Path_102" class="st3" d="M774.8,595.9c0-38.5,26.6-69.6,59.5-69.6"/>
		<path id="Path_104" class="st0" d="M774.8,595.9c0-49.1,30.8-88.9,68.8-88.9"/>
		<path id="Path_107" class="st1" d="M893.8,618.7c0,0,11.4-1.7,14.5-4.6s16.9-7.5,18.2-3.7s19.5,17.4,6.6,19.1s-30.2,1.6-33.8-0.1
			S893.8,618.7,893.8,618.7z"/>
		<path id="Path_108" class="st4" d="M933.2,628.2c-12.9,1.7-30.2,1.6-33.8-0.1c-2.8-1.3-4.5-6.9-5.2-9.5l-0.4,0.1
			c0,0,1.8,9.1,5.5,10.8s21,1.7,33.8,0.1c3.7-0.5,4.8-2,4.5-3.9C937.3,626.9,936,627.8,933.2,628.2z"/>
		<path id="Path_109" class="st1" d="M614.3,617.9c0,0,9.6-1.5,12.2-3.9s14.3-6.3,15.4-3.1s16.5,14.7,5.6,16.1s-25.4,1.4-28.6-0.1
			S614.3,617.9,614.3,617.9z"/>
		<path id="Path_110" class="st4" d="M647.5,625.9c-10.9,1.4-25.4,1.4-28.6-0.1c-2.4-1.1-3.8-5.8-4.4-8l-0.3,0.1
			c0,0,1.5,7.7,4.7,9.1s17.7,1.5,28.6,0.1c3.1-0.4,4.1-1.7,3.8-3.3C651,624.8,649.9,625.6,647.5,625.9z"/>
		<path id="Path_111" class="st1" d="M122.4,613.1c0,0,7.5-1.1,9.5-3s11.1-4.9,12-2.4s12.8,11.5,4.4,12.6s-19.8,1.1-22.2,0
			S122.4,613.1,122.4,613.1z"/>
		<path id="Path_112" class="st4" d="M148.3,619.3c-8.4,1.1-19.8,1.1-22.2,0c-1.8-0.8-3-4.5-3.4-6.2h-0.2c0,0,1.2,6,3.6,7.1
			c2.4,1.1,13.8,1.1,22.2,0c2.4-0.3,3.2-1.3,3-2.6C151,618.5,150.1,619.1,148.3,619.3z"/>
	</g>
</g>
<g>
	<path class="st5" d="M515.3,352.7l-17.4,18.7c-3.2,3.5-5,8-5,12.8V425c0,3.2,2.6,5.8,5.8,5.8H518v-78.1L515.3,352.7L515.3,352.7z"
		/>
	<path class="st5" d="M587.2,352.7l17.4,18.7c3.2,3.5,5,8,5,12.8V425c0,3.2-2.6,5.8-5.8,5.8h-19.2v-78.1L587.2,352.7L587.2,352.7z"
		/>
	<path class="st6" d="M563.3,118.3c-1.7-5-6.4-8.4-11.6-8.4h-0.4l0,0c-5.2,0-9.9,3.3-11.6,8.3L523.3,166v137.9h56V166L563.3,118.3z"
		/>
	<path class="st7" d="M577.9,166h-53.2c-3.9,0-7,3.1-7,7v53.2c0,3.9,3.1,7,7,7h53.2c3.9,0,7-3.1,7-7V173
		C584.9,169.1,581.7,166,577.9,166z"/>
	<path class="st7" d="M585.1,430.9h-67.6c-1.2,0-2.2-1-2.2-2.2V304.4c0-4.4,3.6-7.9,7.9-7.9h56.1c4.4,0,7.9,3.6,7.9,7.9v124.3
		C587.2,429.9,586.3,430.9,585.1,430.9z"/>
	<path class="st6" d="M572.4,441.5H530c-5.9,0-10.7-4.8-10.7-10.7l0,0h63.8l0,0C583.1,436.8,578.4,441.5,572.4,441.5z"/>
	<path class="st5" d="M557.2,430.9h-12v-72.1c0-3.3,2.7-6,6-6l0,0c3.3,0,6,2.7,6,6V430.9z"/>
	<path class="st6" d="M551.2,453.1c0,0,18.8-1.2,23,16.7c0.5,2.1,0.6,4.3,0.6,6.5v12.8c29.9-0.9,22.1,25.2,22.1,25.2
		c0,0.1,0,0.3-0.1,0.4c-0.7,5,5.1,7.9,8.9,4.7c0.5-0.4,1-0.8,1.6-1.2c8.4-6.1,19.5-7,29.3-3.5c12.7,4.6,18.4,13.8,20.9,19.6
		c2.2,5.2,6.5,9.4,12.1,10.6c11.6,2.6,19.9-6.8,19.9-6.8c4.9-4.5,10.7-6.1,15.9-6.5c8-0.5,15.9,2.2,22.4,7
		c11.1,8.1,17.9,17.8,22,27.2c7.8,17.8-5.5,37.7-24.9,37.7h-359c-8.8,0-17.1-4.3-22.1-11.5c-8.2-11.9-15.7-33.3-1.1-65.5
		c17.4-38.2,47.8-41,63.6-39.6c7.8,0.7,15.3,4.2,20.3,10.3c7,8.6,6.5,18,4.9,24.4c-0.9,3.7-2.7,7-4.9,10.1
		c-6.2,8.9-2.3,16.7-2.3,16.7c7.9,9.8,18.2,2.8,18.2,2.8c-1.8-12.7,5.4-22.2,11-27.5c3.4-3.3,7.5-5.9,12-7.5
		c19.6-6.9,37.2,6.5,37.2,6.5c-2.8-38.2,26.6-32.6,26.6-32.6v-14.8C529.2,462.9,539.1,453.1,551.2,453.1L551.2,453.1L551.2,453.1z"
		/>
	<circle class="st8" cx="475.1" cy="479.2" r="7.9"/>
	<path class="st8" d="M696.4,503.9c0,4-3.2,7.2-7.2,7.2s-7.2-3.2-7.2-7.2s3.2-7.2,7.2-7.2S696.4,499.9,696.4,503.9z"/>
	<path class="st8" d="M749.4,490.8c4.9,9.9,7.2,21.3-1.9,25.8s-23.1-1.8-28-11.7c-4.9-9.9-4.3-19.9,4.7-24.3
		S744.5,480.9,749.4,490.8z"/>
</g>
<path id="Path_113" class="st2" d="M383.7,601.3c0,30.2-42.1,20.9-93.7,20.9s-93.1,9.3-93.1-20.9s42.1-36.8,93.7-36.8
	S383.7,571.1,383.7,601.3z"/>
<path id="Path_114" class="st0" d="M383.7,593.9c0,30.2-42.1,20.9-93.7,20.9s-93.1,9.3-93.1-20.9s42.1-36.8,93.7-36.8
	S383.7,563.7,383.7,593.9z"/>
<path id="Path_101" class="st0" d="M721.4,527.1c0,38,23.9,68.8,53.3,68.8"/>
<path id="Path_103" class="st3" d="M740.8,530.5c0,36.1,15.2,65.4,34,65.4"/>
<path id="Path_105" class="st1" d="M763.5,596.3c0,0,7.6-0.2,9.8-1.9s11.6-3.6,12.2-1s11.4,12.9,2.8,13s-19.8-1.3-22.1-2.7
	S763.5,596.3,763.5,596.3z"/>
<path id="Path_106" class="st4" d="M788.6,605.6c-8.5,0.1-19.8-1.3-22.1-2.7c-1.7-1.1-2.4-4.8-2.7-6.6h-0.3c0,0,0.5,6.1,2.8,7.5
	s13.6,2.8,22.1,2.7c2.5,0,3.3-0.9,3.3-2.2C791.3,605.1,790.4,605.6,788.6,605.6z"/>
</svg>
